<?xml version="1.0" encoding="utf-8"?>
<!-- Generator: Adobe Illustrator 16.0.4, SVG Export Plug-In . SVG Version: 6.00 Build 0)  -->
<!DOCTYPE svg PUBLIC "-//W3C//DTD SVG 1.1//EN" "http://www.w3.org/Graphics/SVG/1.1/DTD/svg11.dtd">
<svg version="1.1" id="Ebene_1" xmlns="http://www.w3.org/2000/svg" xmlns:xlink="http://www.w3.org/1999/xlink" x="0px" y="0px"
	 width="141.73px" height="141.73px" viewBox="0 0 141.73 141.73" enable-background="new 0 0 141.73 141.73" xml:space="preserve">
<path fill="none" stroke="#EEE6D0" stroke-width="5.6693" stroke-linecap="round" stroke-linejoin="round" stroke-miterlimit="10" d="
	M90.626,64.564c9.913,6.429,16.471,17.588,16.471,30.284c0,19.922-16.151,36.074-36.074,36.074S34.95,114.77,34.95,94.848
	c0-17.038,11.812-31.313,27.693-35.093c2.689-0.64,13.089-7.968,18.986-3.928c5.735,3.931,3.365,15.695-7.59,14.677"/>
<path fill="none" stroke="#EEE6D0" stroke-width="5.6693" stroke-linecap="round" stroke-linejoin="round" stroke-miterlimit="10" d="
	M62.644,59.758c0,0,20.694-13.899,6.832-19.312c-11.398-4.451-12.915,6.432-8.692,8.812c2.614,1.474,5.03,0.142,6.635-2.011"/>
<path fill="none" stroke="#EEE6D0" stroke-width="5.6693" stroke-linecap="round" stroke-linejoin="round" stroke-miterlimit="10" d="
	M71.629,51.67c3.815-4.111,3.815-13.119,8.157-18.609c0.994-1.257,3.489-5.506,7.534-4.921c7.415,1.072,9.349,7.352,6.12,10.75
	c-2.158,2.272-7.139,3.229-8.838-0.339"/>
<path fill="none" stroke="#EEE6D0" stroke-width="5.6693" stroke-linecap="round" stroke-linejoin="round" stroke-miterlimit="10" d="
	M79.786,33.061c4.985-6.407,6.855-12.866,3.552-17.455c-4.955-6.884-12.673-5.302-15.39-2.719
	c-3.398,3.229-3.942,9.177-1.206,11.047"/>
<circle fill="none" stroke="#EEE6D0" stroke-width="5.6693" stroke-linecap="round" stroke-linejoin="round" stroke-miterlimit="10" cx="60.447" cy="84.266" r="2.294"/>
<circle fill="none" stroke="#EEE6D0" stroke-width="5.6693" stroke-linecap="round" stroke-linejoin="round" stroke-miterlimit="10" cx="82.813" cy="84.266" r="2.294"/>
<path fill="none" stroke="#EEE6D0" stroke-width="5.6693" stroke-linecap="round" stroke-linejoin="round" stroke-miterlimit="10" d="
	M82.812,107.721c-2.027,2.027-6.652,3.568-11.183,3.568c-4.53,0-9.154-1.541-11.183-3.568"/>
</svg>
